<svg width="24" height="24" fill="none" xmlns="http://www.w3.org/2000/svg"><path d="M8.25 10.5h-1.5V3.75A.75.75 0 017.5 3h9a.75.75 0 01.75.75v4.5h-1.5V4.5h-7.5v6z" fill="#828282"/><path fill-rule="evenodd" clip-rule="evenodd" d="M13.5 9h6.75a.75.75 0 01.75.75v10.5a.75.75 0 01-.75.75H3.75a.75.75 0 01-.75-.75v-7.5a.75.75 0 01.75-.75h6.75a.75.75 0 01.75.75v6.75h1.5V9.75A.75.75 0 0113.5 9zM6 18.75h2.25v-1.5H6v1.5zm2.25-3H6v-1.5h2.25v1.5zm7.5 3H18v-1.5h-2.25v1.5zm2.25-3h-2.25v-1.5H18v1.5zm-2.25-3H18v-1.5h-2.25v1.5z" fill="#828282"/></svg>