<svg width="20" height="20" fill="none" xmlns="http://www.w3.org/2000/svg"><path fill-rule="evenodd" clip-rule="evenodd" d="M13 5.5a3 3 0 11-6 0 3 3 0 016 0zM10 10a4.5 4.5 0 100-9 4.5 4.5 0 000 9zm9 7.5c0 1.5-1.5 1.5-1.5 1.5h-15S1 19 1 17.5s1.5-6 9-6 9 4.5 9 6zm-1.5-.005c-.002-.37-.23-1.48-1.248-2.497C15.273 14.02 13.434 13 10 13c-3.434 0-5.273 1.02-6.252 1.998-1.017 1.018-1.246 2.127-1.248 2.497h15z" fill="#828282"/><path d="M16.252 14.998l.283-.283-.283.283zm1.248 2.497v.4h.402l-.002-.402-.4.002zM3.748 14.998l.283.283-.283-.283zM2.5 17.495l-.4-.003-.002.403H2.5v-.4zM10 8.9a3.4 3.4 0 003.4-3.4h-.8A2.6 2.6 0 0110 8.1v.8zM6.6 5.5A3.4 3.4 0 0010 8.9v-.8a2.6 2.6 0 01-2.6-2.6h-.8zM10 2.1a3.4 3.4 0 00-3.4 3.4h.8A2.6 2.6 0 0110 2.9v-.8zm3.4 3.4A3.4 3.4 0 0010 2.1v.8a2.6 2.6 0 012.6 2.6h.8zm.7 0A4.1 4.1 0 0110 9.6v.8a4.9 4.9 0 004.9-4.9h-.8zM10 1.4a4.1 4.1 0 014.1 4.1h.8A4.9 4.9 0 0010 .6v.8zM5.9 5.5A4.1 4.1 0 0110 1.4V.6a4.9 4.9 0 00-4.9 4.9h.8zM10 9.6a4.1 4.1 0 01-4.1-4.1h-.8a4.9 4.9 0 004.9 4.9v-.8zm7.5 9.4v.4h.031l.062-.004a2.242 2.242 0 00.836-.226c.235-.117.482-.3.67-.58.189-.285.301-.645.301-1.09h-.8c0 .305-.075.507-.167.645a.916.916 0 01-.362.31 1.446 1.446 0 01-.535.143l-.033.002h-.005.001l.001.4zm-15 .4h15v-.8h-15v.8zM.6 17.5c0 .445.112.805.302 1.09.187.28.434.463.67.58a2.242 2.242 0 00.898.23h.029L2.5 19v-.4h-.004c-.006 0-.017 0-.032-.002a1.445 1.445 0 01-.535-.143.916.916 0 01-.362-.31c-.092-.138-.167-.34-.167-.645H.6zm9.4-6.4c-3.834 0-6.194 1.153-7.595 2.555C1.015 15.045.6 16.647.6 17.5h.8c0-.647.335-2.044 1.57-3.28C4.194 12.997 6.334 11.9 10 11.9v-.8zm9.4 6.4c0-.853-.415-2.456-1.805-3.845C16.194 12.253 13.835 11.1 10 11.1v.8c3.666 0 5.806 1.097 7.03 2.32 1.235 1.236 1.57 2.633 1.57 3.28h.8zm-3.431-2.219c.94.94 1.13 1.947 1.131 2.216l.8-.005c-.003-.471-.27-1.682-1.365-2.777l-.566.566zM10 13.4c3.35 0 5.08.992 5.969 1.881l.566-.566C15.467 13.648 13.518 12.6 10 12.6v.8zm-5.969 1.881c.89-.89 2.62-1.881 5.969-1.881v-.8c-3.518 0-5.467 1.048-6.535 2.115l.566.566zM2.9 17.497c.002-.269.19-1.276 1.131-2.216l-.566-.566C2.371 15.81 2.103 17.021 2.1 17.492l.8.005zm14.6-.402h-15v.8h15v-.8z" fill="#828282"/></svg>