<svg width="24" height="24" fill="none" xmlns="http://www.w3.org/2000/svg"><path d="M0 0h24v24H0V0zm0 0h24v24H0V0zm0 0h24v24H0V0zm0 0h24v24H0V0zm0 0h24v24H0V0z" fill="#fff"/><path d="M19.035 4.55L17.61 5.975A8.93 8.93 0 0011.995 4c-1.83 0-3.525.55-4.945 1.485L8.505 6.94A6.959 6.959 0 0112 6c3.865 0 7 3.135 7 7a6.959 6.959 0 01-.94 3.495l1.455 1.455A8.972 8.972 0 0021 13c0-2.125-.74-4.075-1.975-5.615L20.45 5.96l-1.415-1.41zM15 1H9v2h6V1zm-4 8.435l2 2V8h-2v1.435zM3.02 4L1.745 5.27 4.5 8.025A8.974 8.974 0 003 13c0 4.97 4.02 9 8.995 9 1.84 0 3.55-.555 4.975-1.5l2.5 2.5 1.27-1.275-7.7-7.705L3.02 4zM12 20c-3.865 0-7-3.135-7-7 0-1.285.35-2.485.955-3.52l9.565 9.565A6.948 6.948 0 0112 20z" fill="#828282"/></svg>