<svg width="25" height="24" fill="none" xmlns="http://www.w3.org/2000/svg"><path d="M9.5 13.5H4.25a.75.75 0 01-.75-.75v-9A.75.75 0 014.25 3h13.5a.75.75 0 01.75.75V7.5H17v-3H5V12h4.5v1.5zm6.75 1.5c-2.213 0-4.052-.48-5.25-1.284V15c0 1.243 2.35 2.25 5.25 2.25S21.5 16.243 21.5 15v-1.284C20.302 14.52 18.463 15 16.25 15zm0 3.75c-2.213 0-4.052-.48-5.25-1.284v1.284c0 1.243 2.35 2.25 5.25 2.25s5.25-1.007 5.25-2.25v-1.284c-1.198.805-3.037 1.284-5.25 1.284z" fill="#fff"/><path d="M10.182 9.504c.514-.6 1.3-1.091 2.3-1.437A1.496 1.496 0 0011 6.75a1.497 1.497 0 00-.818 2.754zM16.25 13.5c2.9 0 5.25-1.007 5.25-2.25S19.15 9 16.25 9 11 10.007 11 11.25s2.35 2.25 5.25 2.25z" fill="#fff"/></svg>