<svg width="26" height="24" fill="none" xmlns="http://www.w3.org/2000/svg"><path d="M12.444 10.9C10.05 10.31 9.28 9.705 9.28 8.755c0-1.09 1.06-1.855 2.847-1.855 1.877 0 2.573.85 2.637 2.1h2.33c-.068-1.725-1.18-3.295-3.385-3.81V3h-3.164v2.16c-2.045.425-3.69 1.675-3.69 3.61 0 2.31 2.019 3.46 4.956 4.13 2.642.6 3.164 1.475 3.164 2.415 0 .685-.512 1.785-2.848 1.785-2.172 0-3.032-.925-3.142-2.1H6.659c.132 2.19 1.856 3.415 3.886 3.83V21h3.164v-2.15c2.051-.375 3.691-1.5 3.691-3.555 0-2.83-2.563-3.8-4.956-4.395z" fill="#828282"/></svg>