<svg width="24" height="25" fill="none" xmlns="http://www.w3.org/2000/svg"><path d="M5.583 2.927H1.917c-.506 0-.917.438-.917.979v17.615c0 .542.41.979.917.979h3.666c.506 0 .917-.437.917-.979V3.906c0-.541-.41-.979-.917-.979zm7.333 0H9.25c-.506 0-.917.438-.917.979v17.615c0 .542.41.979.917.979h3.666c.506 0 .917-.437.917-.979V3.906c0-.541-.41-.979-.917-.979z" fill="#fff"/><path d="M22.974 20.37L19.091 3.25c-.12-.526-.619-.852-1.106-.721l-3.564.92a.921.921 0 00-.567.441 1.038 1.038 0 00-.109.74l3.882 17.121c.057.253.206.47.414.605a.878.878 0 00.694.117l3.564-.921c.492-.128.794-.657.675-1.183z" fill="#fff"/><path fill="#D4B26B" d="M1 17.5h5.5v1H1zm7.33 0h5.5v1h-5.5zm8.48.607l5.37-1.19.216.976-5.37 1.19z"/></svg>