<svg width="26" height="26" fill="none" xmlns="http://www.w3.org/2000/svg"><path d="M13 2.167C7.015 2.167 2.167 7.015 2.167 13S7.015 23.833 13 23.833 23.833 18.985 23.833 13 18.985 2.167 13 2.167zm1.533 17.43v2.07h-2.887v-2.091c-1.847-.396-3.429-1.582-3.543-3.689h2.118c.108 1.138.889 2.02 2.871 2.02 2.129 0 2.6-1.061 2.6-1.722 0-.894-.482-1.744-2.887-2.318-2.687-.645-4.528-1.755-4.528-3.976 0-1.858 1.5-3.071 3.369-3.478v-2.08h2.887V6.44c2.015.493 3.022 2.016 3.093 3.668h-2.134c-.06-1.203-.694-2.02-2.405-2.02-1.625 0-2.6.73-2.6 1.781 0 .916.704 1.5 2.887 2.07 2.188.568 4.528 1.5 4.528 4.235 0 1.977-1.495 3.066-3.37 3.424z" fill="#fff"/></svg>