<svg width="26" height="26" fill="none" xmlns="http://www.w3.org/2000/svg"><path fill-rule="evenodd" clip-rule="evenodd" d="M5.417 4.333a1.083 1.083 0 00-1.084 1.084v15.166a1.083 1.083 0 001.084 1.084H9.75a1.083 1.083 0 010 2.166H5.417a3.25 3.25 0 01-3.25-3.25V5.417a3.25 3.25 0 013.25-3.25H9.75a1.083 1.083 0 110 2.166H5.417zm11.15 2.484a1.083 1.083 0 011.532 0l5.417 5.417a1.083 1.083 0 010 1.532l-5.417 5.417a1.083 1.083 0 11-1.532-1.532L21.217 13l-4.65-4.65a1.083 1.083 0 010-1.533z" fill="#fff"/><path fill-rule="evenodd" clip-rule="evenodd" d="M8.667 13c0-.598.485-1.083 1.083-1.083h13a1.083 1.083 0 010 2.166h-13A1.083 1.083 0 018.667 13z" fill="#fff"/></svg>