<svg width="56" height="56" fill="none" xmlns="http://www.w3.org/2000/svg"><path d="M54.727 28c0 14.761-11.966 26.727-26.727 26.727C13.239 54.727 1.273 42.761 1.273 28 1.273 13.239 13.239 1.273 28 1.273c14.761 0 26.727 11.966 26.727 26.727z" stroke="#D4B26B" stroke-opacity=".3" stroke-width="2.545"/><path d="M26.624 33.393c.025-1.472.192-2.635.501-3.489.31-.853.94-1.8 1.893-2.839l2.43-2.505c1.04-1.175 1.559-2.436 1.559-3.785 0-1.298-.34-2.313-1.02-3.043-.681-.742-1.67-1.113-2.97-1.113-1.261 0-2.276.334-3.042 1.002-.767.668-1.15 1.565-1.15 2.69h-3.433c.024-2.003.736-3.618 2.133-4.842 1.41-1.237 3.241-1.856 5.493-1.856 2.337 0 4.156.631 5.455 1.893 1.31 1.25 1.967 2.969 1.967 5.158 0 2.165-1.002 4.299-3.006 6.401L31.41 29.07c-.903 1.002-1.354 2.443-1.354 4.324h-3.433zm-.148 5.881c0-.556.167-1.02.5-1.391.347-.384.854-.575 1.522-.575s1.175.191 1.521.575c.347.37.52.835.52 1.391 0 .557-.173 1.02-.52 1.392-.346.359-.853.538-1.521.538-.668 0-1.175-.18-1.521-.538-.334-.371-.501-.835-.501-1.392z" fill="#D4B26B"/></svg>