<svg width="139" height="36" fill="none" xmlns="http://www.w3.org/2000/svg"><path d="M52.034 13.32h-1.14l-4.33-6.628v6.629h-1.14V4.719h1.14l4.342 6.658V4.72h1.128v8.602zm9.49 0h-1.14V9.346h-4.337v3.976h-1.134V4.719h1.134v3.698h4.336V4.72h1.14v8.602zm7.734-2.244h-3.603l-.81 2.245h-1.17l3.285-8.602h.993l3.29 8.602H70.08l-.822-2.245zm-3.26-.934h2.924L67.457 6.12l-1.46 4.024zm2.108-5.99h-.939l-1.524-1.737h1.317l1.146 1.737zm11.83 3.864L82 4.719h1.335l-2.718 4.266L83.4 13.32h-1.347l-2.115-3.356-2.127 3.356H76.47l2.788-4.336-2.723-4.266h1.33l2.073 3.297zm11.7-3.297v5.849c-.004.811-.26 1.475-.768 1.99-.505.517-1.19.806-2.056.87l-.302.011c-.94 0-1.691-.254-2.25-.762-.56-.508-.843-1.207-.851-2.097V4.72h1.122v5.824c0 .622.172 1.107.514 1.454.343.342.831.514 1.465.514.642 0 1.133-.172 1.471-.514.343-.343.514-.826.514-1.448V4.72h1.14zm7.273 6.357h-3.603l-.81 2.245h-1.17l3.285-8.602h.993l3.29 8.602h-1.163l-.822-2.245zm-3.26-.934h2.924L97.108 6.12l-1.46 4.024zm1.04-7.538h.897L99.3 4.158h-1.164l-.998-.94-1.004.94h-1.17l1.725-1.554zM99.7 1.582h1.182l-1.188 1.53h-.833l.839-1.53zm8.391 4.07h-2.765v7.669h-1.129V5.653h-2.758v-.934h6.652v.934zm5.769 7.669V4.719h2.812c.933 0 1.634.193 2.103.58.472.385.709.956.709 1.712 0 .402-.114.759-.343 1.07a2.226 2.226 0 01-.933.715c.464.13.831.378 1.099.744.271.362.407.796.407 1.3 0 .771-.25 1.378-.75 1.82-.5.44-1.207.66-2.121.66h-2.983zm1.134-4.023v3.095h1.873c.527 0 .943-.136 1.246-.407.307-.276.461-.654.461-1.135 0-1.035-.563-1.553-1.69-1.553h-1.89zm0-.91h1.713c.496 0 .892-.124 1.188-.372.299-.248.449-.585.449-1.01 0-.473-.138-.816-.414-1.028-.276-.217-.695-.325-1.258-.325h-1.678v2.735zm12.018 2.688h-3.604l-.809 2.245h-1.17l3.285-8.602h.992l3.291 8.602h-1.164l-.821-2.245zm-3.261-.934h2.924l-1.465-4.023-1.459 4.024zm1.116-6.078l-.006-.904c.296-.02.512-.06.65-.118a.32.32 0 00.207-.32c0-.153-.091-.267-.272-.342-.177-.079-.413-.118-.709-.118l.042-.626c.586 0 1.031.102 1.335.307.303.2.455.468.455.803 0 .24-.077.44-.231.597-.153.157-.382.258-.685.301l-.006.42h-.78zm12.762 9.257h-1.14l-4.33-6.629v6.629h-1.14V4.719h1.14l4.342 6.658V4.72h1.128v8.602zM48.23 25.032l2.062-3.296h1.335L48.909 26l2.783 4.336h-1.347l-2.115-3.355-2.127 3.355h-1.341L47.55 26l-2.723-4.265h1.33l2.073 3.296zm10.393 3.06h-3.604l-.809 2.245h-1.17l3.285-8.601h.992l3.29 8.601h-1.163l-.821-2.245zm-3.261-.933h2.924l-1.465-4.023-1.46 4.023zm3.273-6.109v.06h-.904l-.886-1.005-.88 1.005h-.904v-.071l1.453-1.607h.662l1.459 1.618zm6.063 5.004l2.245-4.318h1.287l-2.965 5.393v3.208H64.13V27.13l-2.965-5.393h1.3l2.233 4.318zm9.373 4.283v-8.601h2.428c.748 0 1.41.165 1.985.496.575.33 1.017.801 1.329 1.412.315.61.474 1.311.478 2.103v.55c0 .81-.157 1.522-.472 2.132a3.28 3.28 0 01-1.341 1.406c-.58.327-1.255.494-2.027.502h-2.38zm1.134-7.668v6.74h1.193c.874 0 1.554-.271 2.038-.815.489-.543.733-1.317.733-2.321v-.502c0-.977-.23-1.735-.691-2.275-.457-.543-1.107-.819-1.95-.827h-1.323zm13.725-.933v1.258c.453-.043.774-.199.963-.467.193-.271.29-.697.29-1.276h.938c0 .827-.175 1.448-.525 1.861-.347.41-.902.638-1.666.685v3.793c-.004.784-.246 1.432-.727 1.944-.48.512-1.136.811-1.967.898l-.431.023c-.942 0-1.692-.254-2.251-.762-.56-.508-.843-1.207-.85-2.097v-5.86h1.122v5.825c0 .622.17 1.106.514 1.453.342.343.83.514 1.465.514.642 0 1.132-.171 1.47-.514.343-.343.515-.825.515-1.447v-5.831h1.14zm-3.645 10.096a.66.66 0 01.16-.45c.11-.121.271-.182.484-.182.212 0 .374.06.484.183.11.122.166.272.166.449a.624.624 0 01-.166.443c-.11.118-.272.177-.484.177-.213 0-.374-.059-.485-.177a.638.638 0 01-.16-.443zm13.477-1.495h-1.14l-4.33-6.628v6.628h-1.14v-8.601h1.14l4.341 6.658v-6.658h1.129v8.601zm9.229-1.128c-.291.417-.699.73-1.223.94-.52.204-1.126.306-1.819.306-.701 0-1.324-.163-1.867-.49-.544-.33-.965-.8-1.264-1.406-.296-.607-.447-1.31-.455-2.109v-.75c0-1.296.301-2.3.904-3.013.606-.713 1.457-1.07 2.552-1.07.898 0 1.62.23 2.168.692.547.457.882 1.106 1.004 1.95h-1.134c-.213-1.139-.89-1.708-2.032-1.708-.761 0-1.337.268-1.731.803-.39.532-.587 1.304-.591 2.316v.703c0 .965.22 1.733.662 2.304.441.567 1.037.85 1.79.85a3.94 3.94 0 001.116-.141c.319-.095.583-.254.792-.479v-1.931h-1.991v-.922h3.119v3.155z" fill="#4F4F4F"/><mask id="a" maskUnits="userSpaceOnUse" x="0" y="0" width="35" height="36"><path fill-rule="evenodd" clip-rule="evenodd" d="M0 .949h34.854v34.539H0V.948z" fill="#fff"/></mask><g mask="url(#a)"><path fill-rule="evenodd" clip-rule="evenodd" d="M17.427 35.488c-.693-1.081-2.114-2.61-3.795-2.659H0V.95h13.952c1.312.07 2.527.685 3.475 1.606.949-.92 2.163-1.537 3.476-1.607h13.951V32.83H21.223c-1.68.048-3.103 1.578-3.796 2.659zm0-29.712c-.862-.698-2.056-2.014-3.551-2.014H2.833v26.253h10.955c1.546 0 2.842.588 3.64 1.677.796-1.09 2.092-1.677 3.64-1.677h10.954V3.762H20.978c-1.494 0-2.689 1.316-3.55 2.014z" fill="#02010E"/></g><mask id="b" maskUnits="userSpaceOnUse" x="0" y="0" width="35" height="35"><path fill-rule="evenodd" clip-rule="evenodd" d="M0 34.791h34.922V.881H0v33.91z" fill="#fff"/></mask><g mask="url(#b)"><path fill-rule="evenodd" clip-rule="evenodd" d="M5.457 28.228h3.525v-3.577H5.457v3.577zm25.086-16.896v.018l.014.004-.014.045v.736h-12.15v5.923h-.791v-5.923h-4.318v-.803L18 7.445l12.485 3.887h.058zm-15.907 0h2.966V8.795l-2.966 2.537zm3.757-2.926v2.926h9.395l-9.395-2.926zm8.624 11.062h3.526v-3.576h-3.526v3.576zm-17.244 0H13.3v-3.576H9.773v3.576zm-4.316 0h3.525v-3.576H5.457v3.576zm0 4.38h3.525V20.27H5.457v3.577zm4.316 0H13.3V20.27H9.773v3.577zm4.317 0h3.525V20.27H14.09v3.577zm4.316 0h3.526V20.27h-3.526v3.577zm8.611 4.38h3.526v-3.577h-3.526v3.577zm-4.317 0h3.526v-3.577H22.7v3.577zm-4.294 0h3.526v-3.577h-3.526v3.577zm-4.316 0h3.525v-3.577H14.09v3.577zm-4.317 0H13.3v-3.577H9.773v3.577z" fill="#02010E"/></g></svg>