<svg width="15" height="16" fill="none" xmlns="http://www.w3.org/2000/svg"><path fill-rule="evenodd" clip-rule="evenodd" d="M2.937 2h7.049C11.098 2 12 2.895 12 4v10c0 1.105-.902 2-2.014 2h-7.05a2.007 2.007 0 01-2.013-2V4c0-1.105.902-2 2.014-2zm0 1C2.38 3 1.93 3.448 1.93 4v10c0 .552.45 1 1.007 1h7.049c.556 0 1.007-.448 1.007-1V4c0-.552-.451-1-1.007-1h-7.05z" fill="#828282"/><path d="M4.783 0h7.049c1.112 0 2.014.895 2.014 2v10c0 1.105-.902 2-2.014 2v-1c.556 0 1.007-.448 1.007-1V2c0-.552-.45-1-1.007-1H4.783c-.556 0-1.007.448-1.007 1H2.769c0-1.105.902-2 2.014-2z" fill="#828282"/></svg>