<svg width="12" height="14" fill="none" xmlns="http://www.w3.org/2000/svg"><path d="M11.353 3.51L7.991.146A.5.5 0 007.638 0H1a.5.5 0 00-.5.5v13a.5.5 0 00.5.5h10a.5.5 0 00.5-.5V3.864a.503.503 0 00-.147-.355zm-1.006.584h-2.94v-2.94l2.94 2.94zm.028 8.781h-8.75V1.125h4.719V4.5A.656.656 0 007 5.156h3.375v7.719zm-4.123-6.5h-.504a.186.186 0 00-.18.142L4.79 9.625 4.07 6.52a.189.189 0 00-.183-.145h-.554a.188.188 0 00-.18.236l1.159 4.312c.021.082.096.14.18.14h.5c.085 0 .16-.057.182-.14L6 7.845l.825 3.078a.19.19 0 00.181.14h.497c.085 0 .16-.057.181-.14l1.163-4.312a.188.188 0 00-.181-.236h-.557a.189.189 0 00-.182.145L7.21 9.631l-.778-3.114a.186.186 0 00-.181-.142z" fill="#828282"/></svg>