<svg width="16" height="17" fill="none" xmlns="http://www.w3.org/2000/svg"><path fill-rule="evenodd" clip-rule="evenodd" d="M2 9.834c.368 0 .667.299.667.667v2.666a.667.667 0 00.667.667h9.333a.667.667 0 00.667-.667v-2.666a.667.667 0 011.333 0v2.666a2 2 0 01-2 2H3.333a2 2 0 01-2-2v-2.666c0-.368.299-.667.667-.667z" fill="#000"/><path fill-rule="evenodd" clip-rule="evenodd" d="M4.195 6.695c.26-.26.683-.26.943 0L8 9.557l2.862-2.862a.667.667 0 11.943.943L8.47 10.971a.667.667 0 01-.942 0L4.195 7.638a.667.667 0 010-.943z" fill="#000"/><path fill-rule="evenodd" clip-rule="evenodd" d="M8 1.834c.368 0 .667.298.667.667v8a.667.667 0 01-1.333 0v-8c0-.369.298-.667.666-.667z" fill="#000"/></svg>