<svg width="20" height="20" fill="none" xmlns="http://www.w3.org/2000/svg"><path fill-rule="evenodd" clip-rule="evenodd" d="M4.653 1.597v7.639H3.125V1.597a.764.764 0 011.528 0zm6.11 0v1.528H9.237V1.597a.764.764 0 011.528 0zm6.112 7.639V1.597a.764.764 0 00-1.528 0v7.639h1.528zM.833 13.819a3.059 3.059 0 013.056-3.055 3.059 3.059 0 013.055 3.055c0 1.42-.977 2.606-2.291 2.947v1.637a.764.764 0 01-1.528 0v-1.637A3.053 3.053 0 01.833 13.82zm12.223-6.11A3.059 3.059 0 0010 4.652a3.059 3.059 0 00-3.056 3.055c0 1.42.978 2.606 2.292 2.947v7.748a.764.764 0 001.528 0v-7.748a3.053 3.053 0 002.292-2.947zm3.055 3.055a3.059 3.059 0 013.056 3.055c0 1.42-.978 2.606-2.292 2.947v1.637a.764.764 0 01-1.528 0v-1.637a3.053 3.053 0 01-2.291-2.947 3.059 3.059 0 013.055-3.055z" fill="#fff"/></svg>