<svg width="26" height="28" fill="none" xmlns="http://www.w3.org/2000/svg"><path d="M3.232 28h-.81c-.43 0-.842-.21-1.146-.586C.972 27.04.8 26.53.8 26V5c0-.53.17-1.04.475-1.414C1.58 3.21 1.992 3 2.422 3h.81c.43 0 .843.21 1.147.586.304.375.474.884.474 1.414v21c0 .53-.17 1.04-.474 1.414-.304.375-.717.586-1.147.586zm8.916-19c0-.53-.17-1.04-.475-1.414C11.37 7.21 10.957 7 10.527 7H7.285c-.43 0-.842.21-1.146.586-.304.375-.475.884-.475 1.414v1.75c0 .066.021.13.06.177a.182.182 0 00.143.073h6.078a.185.185 0 00.144-.073.283.283 0 00.06-.177V9zM5.664 26c0 .53.17 1.04.475 1.414.304.375.716.586 1.146.586h3.242c.43 0 .842-.21 1.146-.586.304-.375.475-.884.475-1.414v-1.875a.141.141 0 00-.03-.088.093.093 0 00-.071-.037H5.765a.093.093 0 00-.071.037.141.141 0 00-.03.088V26zm6.383-13H5.765c-.056 0-.1.056-.1.125v8.75c0 .069.044.125.1.125h6.282c.056 0 .101-.056.101-.125v-8.75c0-.069-.045-.125-.101-.125zM16.2 28h-1.621c-.43 0-.842-.21-1.146-.586-.304-.375-.475-.884-.475-1.414V2c0-.53.17-1.04.475-1.414C13.737.21 14.149 0 14.579 0H16.2c.43 0 .842.21 1.146.586.304.375.475.884.475 1.414v24c0 .53-.17 1.04-.475 1.414-.304.375-.716.586-1.146.586zm8.91-2.16L23.478 4.59c-.075-.978-.858-1.687-1.75-1.581l-1.613.187c-.89.105-1.552.982-1.477 1.96l1.632 21.25c.075.978.858 1.688 1.75 1.582l1.613-.187c.89-.105 1.553-.982 1.477-1.96z" fill="#E0E0E0"/></svg>