<svg width="231" height="143" fill="none" xmlns="http://www.w3.org/2000/svg"><path opacity=".7" d="M21.802 114.3C7.821 100.573 9.008 85.748 17.374 69.777c6.236-11.914-4.306-25.6 12.773-42.975C42.655 14.076 71.996 7.15 97.51 16.326c12.76 4.587 55.386-35.874 94.075 0 22.163 20.557 24.469 44.877 20.109 52.354-7.936 13.619 20.491 21.096 3.343 45.62H21.802z" fill="#D9EFFF"/><path opacity=".8" d="M193.436 15.297c-.4-1.386-1.955-2.425-3.806-2.425-.34 0-.673.032-.984.097-.918-1.572-2.903-2.66-5.213-2.66-.592 0-1.17.073-1.71.21-1.244-1.644-3.495-2.748-6.071-2.748-3.065 0-5.672 1.556-6.664 3.74a5.775 5.775 0 00-2.361-.492c-2.688 0-4.865 1.74-4.865 3.891 0 .13.008.25.022.379h31.652v.008zm5.005 55.475c0 .105.008.21.023.306h23.766c.104-.54.192-1.112.266-1.7a3.835 3.835 0 00-1.414-.266c-.274 0-.548.032-.799.08-.741-1.272-2.362-2.159-4.228-2.159a5.64 5.64 0 00-1.392.17c-1.007-1.338-2.835-2.232-4.931-2.232-2.487 0-4.605 1.265-5.412 3.037a4.651 4.651 0 00-1.918-.402c-2.199 0-3.961 1.418-3.961 3.166zm-23.989-13.601c-.273-1.047-1.362-1.837-2.65-1.837a3.19 3.19 0 00-.689.073c-.636-1.185-2.021-2.007-3.628-2.007-.414 0-.814.057-1.192.153-.866-1.248-2.435-2.078-4.227-2.078-2.132 0-3.954 1.176-4.642 2.828a3.824 3.824 0 00-1.644-.37c-1.873 0-3.384 1.32-3.384 2.948 0 .097.008.194.015.282h22.041v.008zm-60.207-28.192c.266-.919 1.303-1.603 2.547-1.603.229 0 .451.024.659.064.614-1.031 1.939-1.748 3.487-1.748.4 0 .785.048 1.147.136.83-1.087 2.34-1.812 4.065-1.812 2.051 0 3.798 1.031 4.457 2.465a3.874 3.874 0 011.585-.322c1.799 0 3.257 1.152 3.257 2.57 0 .08-.007.17-.014.25h-21.19zm-45.097-8.951c-.31-1.072-1.502-1.87-2.939-1.87a3.4 3.4 0 00-.763.08c-.703-1.208-2.243-2.046-4.02-2.046a5.39 5.39 0 00-1.318.162c-.955-1.274-2.695-2.12-4.686-2.12-2.362 0-4.376 1.2-5.146 2.885a4.47 4.47 0 00-1.821-.379c-2.073 0-3.754 1.346-3.754 3.006 0 .096.007.193.015.29h24.432v-.008zM25.444 81.06c-.326-1.127-1.585-1.973-3.095-1.973-.274 0-.548.032-.8.08-.74-1.273-2.362-2.159-4.227-2.159a5.65 5.65 0 00-1.392.17c-1.007-1.338-2.836-2.233-4.931-2.233-.104 0-.2 0-.297.008-.23.62-.488 1.233-.777 1.837A93.867 93.867 0 008 81.053h17.444v.008z" fill="#fff"/><g clip-path="url(#clip0)"><path d="M131.815 20.375c-.54 3.897 2.862 7.47.594 14.452-.756 2.273-3.24 4.98-7.83 8.119-6.805 4.654-4.05 13.964-13.501 17.483 0 0-1.836-3.79-1.62-8.823.108-2.977.918-6.333 3.186-9.689 2.052-3.03-1.566-9.472.864-13.207 1.836-2.868 8.155-1.136 9.181-5.25 1.782-7.361 5.238-7.902 11.988-9.689-.162.163-2.322 2.436-2.862 6.604z" fill="#3865D8"/><path d="M134.678 13.771c-.216.109-6.966 3.302-7.074 7.091-.108 3.843-2.43 7.307-6.481 10.825-4.104 3.519-3.078 15.21-3.078 15.21-3.564 2.706-6.372 4.168-8.586 4.709.108-2.977.918-6.333 3.186-9.689 2.052-3.03-1.566-9.472.864-13.207 1.836-2.868 8.154-1.136 9.181-5.25 1.728-7.415 5.184-7.957 11.988-9.689zM23.162 114.283s-2.268-11.799 9.828-14.181c15.661-3.14-3.672-11.637 9.343-16.184 13.014-4.492 51.194 23.87 73.011 10.014 21.817-13.857 52.923-16.347 58.161-4.547 8.695 19.648 8.533 10.717 15.499 13.911 6.048 2.814 3.402 11.474 3.402 11.474l-169.244-.487z" fill="#68A3FC"/><path d="M123.013 44.516s-1.35-19.54 29.215-16.13c0 0-1.89 8.606-9.18 8.985-8.371.433-3.997 9.96-20.035 7.145z" fill="#5994ED"/><path d="M119.395 114.555h-11.071V89.17h15.823v20.676c0 2.598-2.106 4.709-4.752 4.709z" fill="#2D538A"/><path d="M118.692 112.606h-12.474V87.221h15.823v22.083c0 1.786-1.512 3.302-3.349 3.302z" fill="#2D538A"/><path d="M165.567 103.08H66.634c-1.89 0-3.456-1.57-3.456-3.464V45.273c0-1.895 1.566-3.464 3.456-3.464h98.933c1.89 0 3.456 1.57 3.456 3.464v54.343a3.45 3.45 0 01-3.456 3.464z" fill="#2D538A"/><path d="M161.03 103.08H62.098c-1.89 0-3.456-1.57-3.456-3.464V45.273c0-1.895 1.566-3.464 3.456-3.464h98.932c1.891 0 3.457 1.57 3.457 3.464v54.343a3.45 3.45 0 01-3.457 3.464z" fill="#0047FF"/><path d="M60.046 99.67V45.273a2.11 2.11 0 012.106-2.11h98.932c1.135 0 2.107.92 2.107 2.11v54.343a2.111 2.111 0 01-2.107 2.111H62.098a2.054 2.054 0 01-2.052-2.057z" fill="#8ED5FF"/><path d="M156.062 56.693H92.285v18.295h63.777V56.693zm0 23.707H68.038v6.983h88.024V80.4zm0-31.88H68.038v2.706h88.024V48.52zm0 45.195H68.038v2.706h88.024v-2.706z" fill="#9CDBFF"/><path d="M95.633 112.605h14.149a.97.97 0 01.972.975.969.969 0 01-.972.974H95.633a.969.969 0 01-.972-.974c-.054-.542.378-.975.972-.975z" fill="#0047FF"/><path d="M153.47 59.508h-37.208v12.936h37.208V59.508zm-40.448-.162h-52.76v12.936h52.76V59.346z" fill="#83C8F2"/><path d="M59.02 94.96s-16.201-6.333-16.201-16.238-2.808-9.634-7.344-11.312c-4.537-1.678-3.943-5.954-2.269-8.877 1.675-2.923-5.832-4.98-5.832-4.98s3.888-3.843 8.479-.595c4.536 3.302 3.51 9.093 8.37 8.444 5.238-.704 8.262.595 9.072 4.546 1.242 6.063 6.21 2.815 10.369 7.362 4.104 4.546-4.644 21.65-4.644 21.65z" fill="#5994ED"/><path d="M57.994 113.581c-3.078-1.245-4.537-4.709-3.294-7.795l14.742-36.805 11.07 4.438-14.742 36.806c-1.242 3.085-4.698 4.601-7.776 3.356z" fill="#2D538A"/><path d="M114.372 53.122c-2.754 13.207-14.418 22.246-27.325 22.246-1.89 0-3.834-.216-5.778-.595l-7.453-1.57c1.242.27 2.538.433 3.78.541 13.717.975 26.462-8.335 29.324-22.191 2.916-13.857-4.968-27.497-17.929-32.152-1.188-.433-2.43-.757-3.672-1.028l7.344 1.57h.108c15.121 3.139 24.787 18.024 21.601 33.18z" fill="#FF8547"/><path d="M88.991 19.4c-1.188-.432-2.43-.757-3.672-1.028-15.12-3.193-29.918 6.495-33.104 21.65-3.186 15.156 6.535 29.987 21.601 33.18 1.242.271 2.538.433 3.78.542 13.717.974 26.462-8.336 29.324-22.192 2.916-13.856-4.968-27.496-17.929-32.151zm15.823 31.719c-.054.379-.162.703-.27 1.082-.054.163-.054.325-.108.487a95.149 95.149 0 01-.648 2.057l-.162.488a1.925 1.925 0 01-.216.487c-.054.162-.162.324-.216.487-.054.162-.162.325-.216.487a27.683 27.683 0 01-2.916 4.871c-.108.163-.216.27-.324.38-1.404 1.785-3.079 3.355-4.86 4.708-.163.108-.27.217-.433.325-.162.108-.27.216-.432.325-.54.379-1.026.703-1.566.974l-.324.162a2.522 2.522 0 01-.54.271l-.648.325c-.648.325-1.296.595-1.998.866-.108.054-.216.108-.324.108-.108.054-.216.108-.324.108l-.972.325c-1.728.541-3.51.92-5.292 1.083a26.336 26.336 0 01-7.669-.434 27.002 27.002 0 01-3.726-1.082c-8.694-6.279-13.338-17.266-11.016-28.416 2.322-11.15 10.962-19.324 21.385-21.651 1.296.054 2.538.27 3.834.541 2.592.541 5.022 1.462 7.182 2.707.216.108.432.27.648.378.054 0 .108.055.108.055.486.27.972.595 1.404.92.216.162.486.325.702.487h.054c.216.162.378.27.54.433.108.054.216.162.27.216.162.109.324.271.432.38.216.162.379.324.594.486a21.563 21.563 0 011.89 1.949c.325.379.649.758.973 1.19.216.271.378.488.594.759l.486.65s0 .053.054.053c.162.217.324.487.432.704.162.216.324.487.432.703.108.163.216.38.324.542.054.108.108.216.162.27.108.163.162.325.27.487.054.109.108.217.162.38.054.162.162.324.216.432.378.758.702 1.57.972 2.382.054.162.108.27.162.379.054.162.108.379.162.541.054.27.162.487.216.758.108.379.216.704.27 1.082.054.217.108.488.162.704.054.27.108.541.162.866.054.163.054.379.108.541 0 .163.054.271.054.433.054.271.054.487.108.758.054.27.054.541.054.812 0 .325.054.65.054 1.028v.812c.108 1.787-.054 3.573-.432 5.359z" fill="#FFDF9A"/><path d="M70.522 70.01c-11.772-4.385-18.9-16.888-16.2-29.553 2.646-12.666 14.202-21.218 26.73-20.514a27.967 27.967 0 00-21.384 21.65c-2.376 11.15 2.268 22.138 10.854 28.417z" fill="#63B4FF"/><path opacity=".79" d="M104.814 51.118c-2.916 13.965-16.633 22.95-30.566 19.973a27.002 27.002 0 01-3.726-1.083c-8.586-6.278-13.23-17.266-10.908-28.416 2.322-11.15 10.962-19.323 21.385-21.65 1.296.053 2.538.27 3.834.54 13.987 2.924 22.897 16.672 19.981 30.636z" fill="#8ED5FF"/><path d="M69.928 49.874s4.969 19.919 10.585 23.6c0 0-2.862.973-4.915.324-2.052-.65-8.424-11.367-10.908-18.295-2.538-6.928 5.238-5.629 5.238-5.629z" fill="#2D538A"/><path d="M70.36 37.154s-.108 2.436-.54 3.464c-.432 1.029-.594 2.707-1.512 3.41-.918.758-2.322.325-2.322.325l-.648 1.516s-4.104-1.408-4.05-1.678c.054-.27.702-2.111.702-2.111l8.37-4.926z" fill="#EBB18A"/><path d="M61.72 42.945s3.51 1.462 4.266 1.407c0 0 6.858-7.09 3.996-9.796-2.862-2.707-6.75-2.274-7.668.324-1.188 3.573-.81 7.903-.594 8.065z" fill="#2D538A"/><path d="M68.956 40.943s0-1.082-.918-.812c-.864.271-1.134 2.274-.648 2.436.486.162 1.296-.217 1.296-.217l.27-1.407z" fill="#EBB18A"/><path d="M68.686 40.186s.378.325.216 1.028c0 0 .27.109.378-.324.162-.433.972-2.544 1.08-3.302.162-.758-1.674 2.598-1.674 2.598z" fill="#2D538A"/><path d="M69.712 38.128s1.728.216 2.376-.974l-1.836-2.328-.54 3.302z" fill="#2D538A"/><path d="M55.078 72.877l-1.783 6.28-9.774 34.911-3.186-2.165c3.348-21.976 4.32-28.308 6.534-40.866.486-2.598 2.808-7.523 2.808-7.523l7.399 4.005-1.998 5.358z" fill="#FF8547"/><path d="M63.178 92.146c-.162 1.732-6.588 18.078-7.83 21.921h-3.619c.864-3.843 5.617-20.351 4.915-23.166-.594-2.382-2.052-7.415-3.294-11.8a1560.84 1560.84 0 00-2.215-7.686l3.349-5.142 5.886 2.003c0 .054 2.97 21.921 2.808 23.87z" fill="#FF8547"/><path d="M51.351 38.291s-2.808 0-2.916 4.438c-.054 2.653 2.052 4.222 2.538 5.63 2.322 6.332-4.374 18.565-3.348 19.106.324.163 2.646.433 4.59.866 2.592.541 5.725 1.3 7.669 1.84 1.134.325 2.322-.216 2.862-1.299 1.89-3.897 6.264-13.044 7.236-17.266.972-4.33-5.778-7.09-11.826-8.985-2.322-.704-5.455-1.028-5.563-3.464 0-.162-.162-.866-1.242-.866z" fill="#2D538A"/><path d="M75.436 73.689l2.863-2.436s2.484-.812 3.618.27c.216.217-1.458.11-1.458.11s1.35 1.677 2.592 1.948c1.242.27-.378 1.786-2.214 1.786-2.592 0-4.86-.974-5.4-1.678z" fill="#EBB18A"/><path d="M51.73 114.067l8.262-.054.054-.812-3.996-1.137h-3.78l-.54 2.003zm-10.963.001l7.506-.054.054-.812-3.996-1.137-3.942-.108-.216 1.461c-.108.325.216.65.594.65z" fill="#2D538A"/><path d="M181.335 60.807c-.27.162-3.996 2.382-6.372 7.794-2.214 5.088 1.026 11.15-4.752 19.648-1.836 2.76-6.21 5.467-13.609 7.957-10.962 3.68-10.8 17.212-24.895 18.349 0 0-1.026-5.792 1.242-12.504 1.296-3.95 3.672-8.173 7.993-11.8 3.888-3.247 1.512-13.314 6.21-17.428 3.564-3.14 11.448 1.624 14.365-3.572 5.184-9.31 10.044-8.715 19.818-8.444z" fill="#5994ED"/><path d="M181.335 60.807c-.324.054-10.584 1.786-12.204 6.874-1.62 5.142-6.048 8.876-12.907 12.07-4.212 2.003-7.614 13.748-18.739 21.759-5.562 4.005-5.778 13.098-5.778 13.098s-1.026-5.791 1.242-12.503c1.296-3.951 3.672-8.173 7.993-11.8 3.888-3.247 1.512-13.315 6.21-17.428 3.564-3.14 11.448 1.624 14.365-3.572 5.184-9.364 10.044-8.769 19.818-8.498z" fill="#68A3FC"/></g><path d="M229.545 114.956H.945c-.52 0-.945-.295-.945-.657 0-.361.425-.656.946-.656h228.599c.52 0 .945.295.945.656-.007.362-.425.657-.945.657z" fill="#163560"/><path fill-rule="evenodd" clip-rule="evenodd" d="M104.295 132.001h.581v-4.382h-.575v3.392l-2.212-3.392h-.58v4.382h.58v-3.377l2.206 3.377zm4.778 0h.581v-4.382h-.581v1.884h-2.208v-1.884h-.578v4.382h.578v-2.026h2.208v2.026zm2.218 0l.412-1.144h1.836l.418 1.144h.593l-1.676-4.382h-.506l-1.673 4.382h.596zm2.076-1.619h-1.489l.743-2.05.746 2.05zm-.893-3.052h.478l-.584-.884h-.671l.777.884zm7.444.289l-1.05 1.679-1.056-1.679h-.677l1.387 2.173-1.42 2.209h.683l1.083-1.71 1.077 1.71h.686l-1.417-2.209 1.384-2.173h-.68zm4.854 2.979v-2.979h-.581v2.97c0 .317-.087.563-.262.738-.172.174-.422.261-.749.261-.323 0-.572-.087-.746-.261-.175-.177-.262-.424-.262-.741v-2.967h-.572v2.985c.004.454.149.81.434 1.069.285.258.667.388 1.146.388l.154-.006c.441-.032.79-.18 1.047-.443.259-.262.389-.6.391-1.014zm1.402 1.403l.413-1.144h1.835l.418 1.144h.593l-1.676-4.382h-.505l-1.674 4.382h.596zm2.077-1.619h-1.49l.743-2.05.747 2.05zm-.503-3.84h-.457l-.879.791h.596l.511-.478.509.478h.593l-.873-.791zm1.679-.521h-.602l-.427.78h.424l.605-.78zm2.209 2.074h1.408v-.476h-3.388v.476h1.405v3.906h.575v-3.906zm4.237-.476v4.382h1.519c.466 0 .826-.113 1.081-.337.254-.225.382-.534.382-.927 0-.257-.07-.478-.208-.662a1.001 1.001 0 00-.56-.379 1.15 1.15 0 00.476-.364.902.902 0 00.174-.545c0-.385-.12-.676-.361-.873-.238-.196-.596-.295-1.071-.295h-1.432zm.577 3.909v-1.577h.963c.574 0 .861.264.861.792 0 .245-.078.437-.235.578-.154.138-.366.207-.635.207h-.954zm.873-2.04h-.873v-1.393h.855c.287 0 .501.055.641.165.14.109.211.283.211.524a.633.633 0 01-.229.514c-.151.127-.352.19-.605.19zm3.358 1.369h1.836l.418 1.144h.593l-1.676-4.382h-.506l-1.673 4.382h.596l.412-1.144zm1.664-.475h-1.489l.743-2.05.746 2.05zm-.924-3.557l.003.46h.398l.003-.213a.59.59 0 00.349-.154.417.417 0 00.117-.304.469.469 0 00-.232-.409c-.154-.104-.381-.156-.68-.156l-.021.319c.151 0 .271.02.361.06.093.038.139.096.139.174a.163.163 0 01-.106.163c-.07.03-.18.05-.331.06zm5.868 5.176h.581v-4.382h-.575v3.392l-2.211-3.392h-.581v4.382h.581v-3.377l2.205 3.377zm-43.301 4.618l-1.05 1.679-1.056-1.679h-.677l1.387 2.173-1.42 2.209h.683l1.083-1.71 1.077 1.71h.686l-1.417-2.209 1.384-2.173h-.68zm1.941 4.382l.412-1.144h1.836l.418 1.144h.593l-1.676-4.382h-.506l-1.673 4.382h.596zm2.076-1.619h-1.489l.743-2.05.746 2.05zm.178-3.082v-.03l-.743-.824h-.338l-.74.818v.036h.461l.448-.511.451.511h.461zm4.176.319l-1.143 2.2-1.138-2.2h-.662l1.511 2.748v1.634h.578v-1.634l1.51-2.748h-.656zm3.521 0v4.382h1.213c.393-.004.737-.09 1.032-.256.297-.167.524-.405.683-.716.16-.311.241-.673.241-1.087v-.279a2.336 2.336 0 00-.244-1.072 1.704 1.704 0 00-.677-.719 1.997 1.997 0 00-1.011-.253h-1.237zm.578 3.909v-3.433h.674c.429.004.76.144.993.421.235.275.352.661.352 1.159v.255c0 .512-.124.906-.373 1.183-.247.277-.593.415-1.038.415h-.608zm6.936-3.268v-.641h-.581v2.97c0 .317-.087.563-.262.738-.172.174-.422.261-.749.261-.323 0-.572-.087-.746-.261-.175-.177-.262-.424-.262-.741v-2.967h-.572v2.985c.004.454.149.81.434 1.069.284.258.667.388 1.146.388l.22-.012c.423-.044.757-.197 1.002-.458.244-.26.368-.59.37-.99v-1.931c.389-.025.672-.141.848-.35.179-.21.268-.526.268-.947h-.478c0 .294-.049.511-.148.65-.096.136-.259.215-.49.237zm-1.776 4.273a.338.338 0 00-.081.229c0 .09.027.165.081.226.057.06.139.09.247.09.109 0 .191-.03.247-.09a.321.321 0 00.084-.226.33.33 0 00-.084-.229c-.056-.062-.138-.093-.247-.093-.108 0-.19.031-.247.093zm6.148-.532h.581v-4.382h-.575v3.392l-2.212-3.392h-.58v4.382h.58v-3.377l2.206 3.377zm4.604-.097a1.34 1.34 0 00.623-.478v-1.607h-1.589v.469h1.014v.984a.873.873 0 01-.403.244 2.018 2.018 0 01-.569.072c-.383 0-.687-.144-.912-.433-.224-.291-.337-.682-.337-1.174v-.358c.002-.515.103-.908.301-1.179.201-.273.495-.409.882-.409.582 0 .927.289 1.035.869h.578c-.062-.429-.233-.76-.512-.993-.278-.235-.647-.352-1.104-.352-.558 0-.991.182-1.3.545-.307.363-.46.874-.46 1.534v.383c.004.407.081.765.231 1.074.153.309.368.548.644.716.277.167.594.25.951.25.353 0 .662-.052.927-.157z" fill="#CCD7F3"/><mask id="a" x="82" y="125" width="17" height="18"><path fill-rule="evenodd" clip-rule="evenodd" d="M82.002 125.516h16.031v17.368H82.002v-17.368z" fill="#fff"/></mask><g mask="url(#a)"><path fill-rule="evenodd" clip-rule="evenodd" d="M90.017 142.884c-.319-.544-.973-1.313-1.746-1.337h-6.27v-16.031h6.417c.604.035 1.163.344 1.599.807.436-.463.995-.772 1.598-.807h6.417v16.031h-6.27c-.772.024-1.426.793-1.745 1.337zm0-14.942c-.396-.35-.946-1.012-1.633-1.012h-5.08v13.201h5.04c.71 0 1.306.296 1.673.843.367-.547.963-.843 1.674-.843h5.039V126.93h-5.08c-.687 0-1.236.662-1.633 1.012z" fill="#CCD7F3"/></g><mask id="b" x="82" y="125" width="17" height="18"><path fill-rule="evenodd" clip-rule="evenodd" d="M82.002 142.532h16.062V125.48H82.002v17.052z" fill="#fff"/></mask><g mask="url(#b)"><path fill-rule="evenodd" clip-rule="evenodd" d="M84.511 139.232h1.622v-1.798H84.51v1.798zm11.538-8.496v.009l.006.002-.006.023v.37H90.46v2.978h-.364v-2.978H88.11v-.404l2.169-1.955 5.742 1.955h.027zm-7.316-.001h1.364v-1.276l-1.364 1.276zm1.728-1.471v1.471h4.321l-4.32-1.471zm3.966 5.564h1.622v-1.799h-1.622v1.799zm-7.931 0h1.622v-1.799h-1.622v1.799zm-1.985 0h1.622v-1.799H84.51v1.799zm0 2.201h1.622v-1.799H84.51v1.799zm1.985 0h1.622v-1.799h-1.622v1.799zm1.986 0h1.621v-1.799h-1.621v1.799zm1.985 0h1.621v-1.799h-1.621v1.799zm3.96 2.203h1.622v-1.798h-1.622v1.798zm-1.985 0h1.622v-1.798h-1.622v1.798zm-1.975 0h1.621v-1.798h-1.621v1.798zm-1.985 0h1.621v-1.798h-1.621v1.798zm-1.986 0h1.622v-1.798h-1.622v1.798z" fill="#CCD7F3"/></g></svg>