<svg width="51" height="53" fill="none" xmlns="http://www.w3.org/2000/svg"><mask id="a" maskUnits="userSpaceOnUse" x="0" y="0" width="51" height="53"><path fill-rule="evenodd" clip-rule="evenodd" d="M0 .85h50.512v51.556H0V.85z" fill="#fff"/></mask><g mask="url(#a)"><path fill-rule="evenodd" clip-rule="evenodd" d="M25.256 52.406c-1.005-1.614-3.064-3.897-5.5-3.968H0V.85h20.22c1.902.104 3.662 1.023 5.036 2.397C26.631 1.873 28.39.954 30.293.85h20.22v47.587H30.756c-2.436.072-4.496 2.355-5.5 3.97zm0-44.35c-1.25-1.04-2.98-3.006-5.146-3.006H4.105v39.187h15.877c2.24 0 4.119.878 5.274 2.504 1.155-1.626 3.034-2.504 5.275-2.504h15.877V5.05H30.403c-2.167 0-3.897 1.965-5.147 3.007z" fill="#333"/></g><path fill-rule="evenodd" clip-rule="evenodd" d="M44.263 16.2v-.027h-.087L25.294 10.25l-7.13 5.923v1.224h6.529v9.024h1.197v-9.024h18.373v-1.122l.02-.068-.02-.007zM11.658 41.917H6.325v-5.45h5.332v5.45zm8.55-25.744h4.485v-3.866l-4.485 3.866zm5.682 0v-4.458l14.206 4.458H25.89zM38.93 28.57h5.332v-5.45H38.93v5.45zm-20.745 0h-5.332v-5.45h5.332v5.45zm-11.86 0h5.332v-5.45H6.326v5.45zm5.332 6.673H6.326v-5.45h5.332v5.45zm1.196 0h5.332v-5.45h-5.332v5.45zm11.86 0h-5.332v-5.45h5.331v5.45zm1.196 0h5.331v-5.45h-5.33v5.45zm18.353 6.674H38.93v-5.45h5.332v5.45zm-11.86 0h5.331v-5.45h-5.331v5.45zm-1.162 0h-5.33v-5.45h5.331v5.45zm-11.86 0h5.332v-5.45h-5.331v5.45zm-1.195 0h-5.332v-5.45h5.332v5.45z" fill="#333"/></svg>