<svg width="12" height="16" fill="none" xmlns="http://www.w3.org/2000/svg"><path d="M11.531 2.729L8.937.104a1.543 1.543 0 00-1.062-.438H1.5a1.5 1.5 0 00-1.5 1.5v13c0 .844.656 1.5 1.5 1.5h9a1.5 1.5 0 001.5-1.5V3.791c0-.375-.188-.781-.469-1.062zm-1.156.937H8V1.291l2.375 2.375zM1.5 14.166v-13h5v3.25c0 .438.313.75.75.75h3.25v9h-9zm7.813-4.469c-.376-.375-1.47-.281-2.032-.218-.531-.313-.875-.782-1.125-1.438.094-.5.313-1.281.157-1.75-.125-.812-1.188-.75-1.344-.187-.125.5 0 1.218.218 2.093-.312.75-.78 1.75-1.093 2.344-.625.313-1.469.813-1.594 1.438-.094.5.813 1.718 2.375-.97.688-.25 1.469-.53 2.125-.655.594.343 1.281.53 1.75.53.813 0 .875-.874.563-1.187zm-6.188 2.438c.156-.438.75-.938.938-1.094-.594.938-.938 1.094-.938 1.094zm2.531-5.969c.25 0 .219 1 .063 1.281-.125-.437-.125-1.281-.063-1.281zm-.75 4.281c.313-.531.563-1.156.782-1.718.25.468.562.843.937 1.093-.656.157-1.219.407-1.719.625zM9 10.291s-.156.188-1.156-.25c1.093-.094 1.281.156 1.156.25z" fill="#828282"/></svg>