<svg width="20" height="20" fill="none" xmlns="http://www.w3.org/2000/svg"><g clip-path="url(#clip0)"><path d="M16.666 19.083h-.25c-2.666-.333-5.333-1.25-7.583-2.666a17.522 17.522 0 01-5.25-5.25C2.083 8.917 1.166 6.25.917 3.583c0-.666.166-1.333.583-1.833.417-.5 1-.833 1.667-.917h2.75c1.25 0 2.333.917 2.5 2.167.083.75.25 1.5.5 2.167.333.916.083 1.916-.584 2.666l-.583.584c1 1.5 2.25 2.833 3.833 3.833l.583-.583c.667-.667 1.75-.917 2.667-.584.667.25 1.417.417 2.167.5 1.25.167 2.166 1.25 2.166 2.5v2.5c0 .667-.25 1.334-.75 1.75-.5.417-1.083.75-1.75.75zM5.916 2.5h-2.5c-.25 0-.5.167-.666.333-.083.167-.167.334-.167.584.25 2.416 1.083 4.75 2.417 6.833 1.25 1.917 2.833 3.583 4.75 4.75 2.083 1.333 4.416 2.167 6.833 2.417.334 0 .5-.084.667-.25a.756.756 0 00.25-.584v-2.5c0-.416-.334-.75-.75-.833-.834-.083-1.667-.333-2.5-.667-.334-.083-.667-.083-.917.167l-1.083 1.083a.886.886 0 01-1 .167 13.675 13.675 0 01-5.333-5.333c-.084-.334 0-.75.25-1L7.25 6.583c.167-.166.25-.583.167-.833-.334-.833-.5-1.667-.667-2.5 0-.417-.417-.75-.833-.75zm9.917 5.833c-.417 0-.75-.25-.833-.666-.25-1.334-1.334-2.334-2.667-2.667a.864.864 0 01-.667-1 .864.864 0 011-.667c2 .417 3.584 1.917 3.917 3.917.084.417-.166.917-.666 1 0 0 0 .083-.084.083zm3.333-.083c-.416 0-.75-.333-.833-.75C18 4.417 15.583 2 12.417 1.583c-.417-.083-.75-.5-.75-.916 0-.417.5-.75.916-.75C16.5.333 19.5 3.333 19.916 7.25c.084.417-.25.833-.75.917.084.083 0 .083 0 .083z" fill="#828282"/></g><defs><clipPath id="clip0"><path fill="#fff" d="M0 0h20v20H0z"/></clipPath></defs></svg>