<svg width="12" height="16" fill="none" xmlns="http://www.w3.org/2000/svg"><path d="M11.531 2.729L8.937.104a1.543 1.543 0 00-1.062-.438H1.5a1.5 1.5 0 00-1.5 1.5v13c0 .844.656 1.5 1.5 1.5h9a1.5 1.5 0 001.5-1.5V3.791c0-.375-.188-.781-.469-1.062zm-1.156.937H8V1.291l2.375 2.375zM1.5 14.166v-13h5v3.25c0 .438.313.75.75.75h3.25v9h-9zm6.625-7.5h-.906a.384.384 0 00-.344.219C6.312 7.916 6.187 8.197 6 8.666c-.438-.906-.219-.531-.906-1.781a.384.384 0 00-.344-.219h-.875c-.313 0-.469.313-.344.563L4.97 9.666l-1.44 2.438c-.156.25.031.562.344.562h.875c.156 0 .281-.063.344-.188.687-1.25.718-1.406.906-1.812.438.969.156.5.875 1.813.063.125.188.187.344.187h.906a.368.368 0 00.313-.563L7 9.667c0-.031.938-1.562 1.438-2.437a.368.368 0 00-.313-.563z" fill="#828282"/></svg>