<svg width="18" height="21" fill="none" xmlns="http://www.w3.org/2000/svg"><path fill-rule="evenodd" clip-rule="evenodd" d="M13.401 0c.142 1.23-.378 2.465-1.15 3.353-.772.888-2.039 1.578-3.28 1.487-.168-1.205.458-2.463 1.174-3.248C10.943.704 12.288.042 13.4 0zm4.594 15.404c-.132-.051-2.932-1.127-2.962-4.247-.024-2.602 2.19-3.88 2.38-3.99l.01-.006c-1.3-1.807-3.323-2.055-4.044-2.083-1.053-.102-2.075.281-2.91.594-.529.198-.983.369-1.322.369-.378 0-.845-.176-1.369-.374-.686-.258-1.47-.554-2.28-.539A5.458 5.458 0 00.925 7.76c-1.948 3.213-.497 7.973 1.402 10.58.929 1.275 2.036 2.71 3.49 2.659.65-.025 1.113-.212 1.591-.405.552-.224 1.125-.455 2.03-.455.866 0 1.414.225 1.94.441.503.207.986.405 1.71.393 1.505-.027 2.462-1.301 3.383-2.58 1.032-1.433 1.476-2.82 1.526-2.976l.004-.011-.005-.002z" fill="#fff"/></svg>