<svg width="20" height="18" fill="none" xmlns="http://www.w3.org/2000/svg"><path fill-rule="evenodd" clip-rule="evenodd" d="M4.424 10.933c0 .402.384.729.858.729h14.583v1.457H5.282c-1.422 0-2.574-.978-2.574-2.186V1.458H.135V0h3.431c.474 0 .858.326.858.729v2.186H18.15a.92.92 0 01.676.28.65.65 0 01.156.626l-1.716 5.831c-.095.325-.439.552-.832.552H4.424v.729zm.858 6.56c.947 0 1.715-.653 1.715-1.458 0-.805-.768-1.458-1.715-1.458-.948 0-1.716.653-1.716 1.458 0 .805.768 1.458 1.716 1.458zm12.01 0c.947 0 1.715-.653 1.715-1.458 0-.805-.768-1.458-1.715-1.458-.948 0-1.716.653-1.716 1.458 0 .805.768 1.458 1.716 1.458z" fill="#E1D6BF"/></svg>