<svg width="33" height="32" fill="none" xmlns="http://www.w3.org/2000/svg"><path fill-rule="evenodd" clip-rule="evenodd" d="M16.5 30c7.732 0 14-6.268 14-14s-6.268-14-14-14-14 6.268-14 14 6.268 14 14 14zm0 2c8.837 0 16-7.163 16-16s-7.163-16-16-16S.5 7.163.5 16s7.163 16 16 16z" fill="#fff"/><path fill-rule="evenodd" clip-rule="evenodd" d="M22.44 9.94a1.5 1.5 0 012.142 2.099l-7.985 9.98a1.5 1.5 0 01-2.158.041l-5.293-5.292a1.5 1.5 0 012.122-2.122l4.187 4.188 6.944-8.85a.485.485 0 01.04-.045z" fill="#fff"/></svg>