<svg width="32" height="32" fill="none" xmlns="http://www.w3.org/2000/svg"><path fill-rule="evenodd" clip-rule="evenodd" d="M16 30c7.732 0 14-6.268 14-14S23.732 2 16 2 2 8.268 2 16s6.268 14 14 14zm0 2c8.837 0 16-7.163 16-16S24.837 0 16 0 0 7.163 0 16s7.163 16 16 16z" fill="#fff"/><path d="M17.861 13.176l-4.582.574-.164.762.903.164c.586.14.703.351.574.937l-1.477 6.938c-.386 1.793.211 2.637 1.617 2.637 1.09 0 2.356-.504 2.93-1.196l.176-.832c-.399.352-.984.492-1.371.492-.55 0-.75-.386-.61-1.066l2.004-9.41z" fill="#fff"/><circle cx="16" cy="9" r="2" fill="#fff"/></svg>