<svg width="32" height="32" fill="none" xmlns="http://www.w3.org/2000/svg"><path fill-rule="evenodd" clip-rule="evenodd" d="M16 30c7.732 0 14-6.268 14-14S23.732 2 16 2 2 8.268 2 16s6.268 14 14 14zm0 2c8.837 0 16-7.163 16-16S24.837 0 16 0 0 7.163 0 16s7.163 16 16 16z" fill="#fff"/><path fill-rule="evenodd" clip-rule="evenodd" d="M9.293 9.293a1 1 0 011.414 0L16 14.586l5.293-5.293a1 1 0 111.414 1.414L17.414 16l5.293 5.293a1 1 0 01-1.414 1.414L16 17.414l-5.293 5.293a1 1 0 01-1.414-1.414L14.586 16l-5.293-5.293a1 1 0 010-1.414z" fill="#fff"/></svg>