<svg width="17" height="16" fill="none" xmlns="http://www.w3.org/2000/svg"><path d="M14.5 7.436h-12a.835.835 0 01-.602-.247.808.808 0 01-.255-.602c0-.237.083-.44.248-.61a.818.818 0 01.61-.253h.75a1.904 1.904 0 001.606.856 1.903 1.903 0 001.607-.856h4.072a1.904 1.904 0 001.607.856 1.903 1.903 0 001.607-.856h.75c.241 0 .444.084.61.254.165.17.247.372.247.609a.809.809 0 01-.254.602.835.835 0 01-.603.247zm-2.062-1.793a.665.665 0 01-.536.067.7.7 0 01-.429-.334l-2.022-3.72a.697.697 0 01-.074-.542.677.677 0 01.329-.435.665.665 0 01.535-.066.7.7 0 01.429.334l2.022 3.72c.098.17.123.35.074.542a.676.676 0 01-.328.434zm-6.911-.267a.7.7 0 01-.429.334.665.665 0 01-.535-.067.677.677 0 01-.328-.434.697.697 0 01.073-.542L6.331.947a.7.7 0 01.428-.334.665.665 0 01.536.066.68.68 0 01.328.435.697.697 0 01-.074.542l-2.022 3.72zm8.116 8.054c-.071.357-.203.59-.395.696-.192.107-.484.16-.877.16H4.683c-.402 0-.705-.053-.91-.16-.206-.107-.344-.339-.416-.696L2.5 8.293h12l-.857 5.137zM11.5 10.861h-1.286V9.577a.411.411 0 00-.127-.301.412.412 0 00-.301-.127.412.412 0 00-.301.127.411.411 0 00-.128.301v1.284H8.072a.412.412 0 00-.302.128.411.411 0 00-.127.3c0 .117.042.217.127.302a.412.412 0 00.302.127h1.285v1.284a.41.41 0 00.128.301.412.412 0 00.3.127.412.412 0 00.302-.127.411.411 0 00.127-.3v-1.285H11.5a.412.412 0 00.302-.127.411.411 0 00.127-.301.411.411 0 00-.127-.301.412.412 0 00-.302-.128z" fill="#EB5757"/></svg>