<svg width="12" height="14" fill="none" xmlns="http://www.w3.org/2000/svg"><path fill-rule="evenodd" clip-rule="evenodd" d="M2.792 10.5a.875.875 0 00-.875.875.583.583 0 11-1.167 0 2.042 2.042 0 012.042-2.042h7.875a.583.583 0 010 1.167H2.792z" fill="#fff"/><path fill-rule="evenodd" clip-rule="evenodd" d="M2.792 1.75a.875.875 0 00-.875.875v8.75a.875.875 0 00.875.875h7.291V1.75H2.792zm0-1.167h7.875c.322 0 .583.262.583.584v11.666a.583.583 0 01-.583.584H2.792A2.042 2.042 0 01.75 11.375v-8.75A2.042 2.042 0 012.792.583z" fill="#fff"/></svg>