<svg width="16" height="14" fill="none" xmlns="http://www.w3.org/2000/svg"><path fill-rule="evenodd" clip-rule="evenodd" d="M.667 1c0-.368.298-.667.666-.667h4a3.333 3.333 0 013.333 3.334V13a.667.667 0 11-1.333 0A1.333 1.333 0 006 11.667H1.333A.667.667 0 01.667 11V1zm6.666 9.69V3.668a2 2 0 00-2-2H2v8.666h4c.472 0 .931.126 1.333.358z" fill="#D4B26B"/><path fill-rule="evenodd" clip-rule="evenodd" d="M8.31 1.31a3.333 3.333 0 012.356-.977h4c.369 0 .667.299.667.667v10a.667.667 0 01-.667.667H10A1.333 1.333 0 008.666 13a.667.667 0 11-1.333 0V3.667c0-.884.351-1.732.976-2.357zm.356 9.38A2.667 2.667 0 0110 10.334h4V1.667h-3.334a2 2 0 00-2 2v7.024z" fill="#D4B26B"/></svg>