<svg width="10" height="12" fill="none" xmlns="http://www.w3.org/2000/svg"><path fill-rule="evenodd" clip-rule="evenodd" d="M2.174 7.055c0 .26.195.47.435.47H10v.94H2.609c-.72 0-1.305-.631-1.305-1.41V.94H0V0h1.74c.24 0 .434.21.434.47v1.411H9.13c.134 0 .26.067.343.181a.5.5 0 01.08.404l-.87 3.762a.443.443 0 01-.422.356H2.174v.47zm.534 4.373A1.05 1.05 0 003.75 10.37a1.05 1.05 0 00-1.042-1.058 1.05 1.05 0 00-1.041 1.058 1.05 1.05 0 001.041 1.058zm6.25 0A1.05 1.05 0 0010 10.37a1.05 1.05 0 00-1.042-1.058 1.05 1.05 0 00-1.041 1.058 1.05 1.05 0 001.041 1.058z" fill="#fff"/></svg>