<svg width="12" height="12" fill="none" xmlns="http://www.w3.org/2000/svg"><path fill-rule="evenodd" clip-rule="evenodd" d="M6 1.333A4.667 4.667 0 001.333 6v3.5a.583.583 0 01-1.166 0V6a5.833 5.833 0 1111.666 0v3.5a.583.583 0 01-1.167 0V6A4.667 4.667 0 006 1.333z" fill="#fff"/><path fill-rule="evenodd" clip-rule="evenodd" d="M.167 7.167c0-.322.26-.584.583-.584H2.5a1.75 1.75 0 011.75 1.75v1.75a1.75 1.75 0 01-1.75 1.75h-.583a1.75 1.75 0 01-1.75-1.75V7.167zm1.166.583v2.333a.583.583 0 00.584.584H2.5a.583.583 0 00.583-.584v-1.75A.583.583 0 002.5 7.75H1.333zm8.167 0a.583.583 0 00-.584.583v1.75a.583.583 0 00.584.584h.583a.583.583 0 00.583-.584V7.75H9.5zm-1.238-.654A1.75 1.75 0 019.5 6.583h1.75c.322 0 .583.261.583.584v2.916a1.75 1.75 0 01-1.75 1.75H9.5a1.75 1.75 0 01-1.75-1.75v-1.75c0-.464.184-.909.512-1.237z" fill="#fff"/></svg>