<svg width="15" height="15" fill="none" xmlns="http://www.w3.org/2000/svg"><path d="M13.5 7.436h-12a.835.835 0 01-.603-.247.808.808 0 01-.254-.602c0-.236.082-.44.247-.609a.818.818 0 01.61-.254h.75a1.904 1.904 0 001.607.856 1.903 1.903 0 001.607-.856h4.071a1.904 1.904 0 001.608.856 1.903 1.903 0 001.607-.856h.75c.24 0 .444.085.61.254.164.17.247.373.247.609a.809.809 0 01-.255.602.835.835 0 01-.602.247zm-2.063-1.792a.665.665 0 01-.535.067.7.7 0 01-.43-.335l-2.021-3.72a.697.697 0 01-.074-.541.677.677 0 01.328-.435.665.665 0 01.536-.067.7.7 0 01.428.334l2.023 3.72c.098.17.123.35.073.542a.676.676 0 01-.328.435zm-6.91-.268a.7.7 0 01-.43.335.665.665 0 01-.535-.067.677.677 0 01-.328-.435.697.697 0 01.074-.542L5.33.947a.7.7 0 01.43-.334.665.665 0 01.535.067c.17.098.28.243.328.435a.697.697 0 01-.073.541l-2.022 3.72zm8.116 8.055c-.072.356-.204.588-.396.695-.191.107-.484.161-.877.161H3.683c-.402 0-.706-.054-.911-.16-.205-.108-.344-.34-.415-.696L1.5 8.293h12l-.857 5.138zM10.5 10.86H9.214V9.578a.411.411 0 00-.127-.3.412.412 0 00-.302-.128.412.412 0 00-.3.127.411.411 0 00-.128.301v1.285H7.07a.412.412 0 00-.301.127.411.411 0 00-.127.3c0 .117.042.217.127.302a.412.412 0 00.301.127h1.286v1.284c0 .116.042.217.127.301a.412.412 0 00.301.128.412.412 0 00.302-.127.411.411 0 00.127-.302v-1.284H10.5a.412.412 0 00.301-.127.411.411 0 00.127-.301.411.411 0 00-.127-.301.412.412 0 00-.301-.127z" fill="#EB5757"/></svg>