<svg width="20" height="18" fill="none" xmlns="http://www.w3.org/2000/svg"><path d="M10 1C7.825 1 6.062 2.785 6.062 4.987c0 1.78 2.574 5.024 3.56 6.202.2.239.557.239.756 0 .986-1.178 3.56-4.422 3.56-6.202C13.938 2.785 12.175 1 10 1zm0 5.316a1.32 1.32 0 01-1.313-1.33A1.32 1.32 0 0110 3.659a1.32 1.32 0 011.313 1.329A1.32 1.32 0 0110 6.316zM1.629 7.833a1.003 1.003 0 00-.457.372A1.022 1.022 0 001 8.773v7.92a.5.5 0 00.686.47L6 15.175V7.8a9.639 9.639 0 01-.664-1.469L1.629 7.833zM10 12.38c-.44 0-.856-.195-1.14-.536A33.372 33.372 0 017 9.416v5.759l6 2.025V9.416a33.362 33.362 0 01-1.86 2.428c-.284.34-.7.536-1.14.536zm8.314-6.28L14 8.087V17.2l4.371-1.77a1.021 1.021 0 00.629-.94V6.57a.5.5 0 00-.686-.47z" fill="#91909A"/></svg>