<svg width="19" height="17" fill="none" xmlns="http://www.w3.org/2000/svg"><path fill-rule="evenodd" clip-rule="evenodd" d="M17.277.232a.74.74 0 00-1.075 0l-3.088 3.217a8.296 8.296 0 00-3.983-1.071c-5.38 0-8.868 5.679-9.014 5.92a.821.821 0 000 .844 15.536 15.536 0 003.697 3.998l-2.07 2.155a.814.814 0 00-.216.776c.07.28.28.499.548.57a.741.741 0 00.744-.224L17.277 1.352a.816.816 0 000-1.121zM6.087 8.72c0-1.752 1.363-3.172 3.044-3.172.54.003 1.07.16 1.53.455l-4.137 4.31a3.184 3.184 0 01-.437-1.593zM15.703 5a15.883 15.883 0 012.513 3.076c.156.264.156.6 0 .864-.147.247-3.657 6.06-9.072 6.06a7.759 7.759 0 01-2.477-.424L15.703 5z" fill="#C1C0C8"/></svg>